<svg width="320" height="260" viewBox="0 0 320 260" fill="none" xmlns="http://www.w3.org/2000/svg">
  <rect width="320" height="260" rx="28" fill="#EEE7DB"/>
  <path d="M130 131C98 92 66 84 38 104C17 119 11 154 27 180C40 203 70 218 112 199L137 167L130 131Z" fill="#302621"/>
  <path d="M191 131C223 92 255 84 283 104C304 119 310 154 294 180C281 203 251 218 209 199L184 167L191 131Z" fill="#302621"/>
  <path d="M126 129C94 100 67 98 47 117C28 135 32 166 51 180C67 193 91 190 120 170L132 149L126 129Z" fill="#C97F42"/>
  <path d="M194 129C226 100 253 98 273 117C292 135 288 166 269 180C253 193 229 190 200 170L188 149L194 129Z" fill="#C97F42"/>
  <path d="M144 144C126 184 127 212 145 230C155 240 167 240 177 230C195 212 194 184 176 144H144Z" fill="#241F1D"/>
  <path d="M154 50C159 40 164 40 169 50L171 145H152L154 50Z" fill="#221B18"/>
  <circle cx="82" cy="136" r="7" fill="#F6EDE1"/>
  <circle cx="236" cy="136" r="7" fill="#F6EDE1"/>
  <circle cx="96" cy="162" r="5" fill="#F6EDE1"/>
  <circle cx="222" cy="162" r="5" fill="#F6EDE1"/>
</svg>
