<svg xmlns="http://www.w3.org/2000/svg" viewBox="0 0 800 600" fill="none">
  <defs>
    <linearGradient id="bg" x1="116" y1="46" x2="686" y2="554" gradientUnits="userSpaceOnUse">
      <stop stop-color="#F4EEE5"/>
      <stop offset="1" stop-color="#D2BFAC"/>
    </linearGradient>
  </defs>
  <rect width="800" height="600" rx="44" fill="url(#bg)"/>
  <path d="M76 430c120-58 251-72 392-44 103 20 179 14 256-16v122H76V430Z" fill="#C4B29F" fill-opacity=".68"/>
  <path d="M94 402c146-46 286-52 420-19 58 14 118 8 180-19" stroke="#8AA0AA" stroke-width="22" stroke-linecap="round"/>
  <ellipse cx="402" cy="304" rx="168" ry="118" fill="#4B3E36"/>
  <ellipse cx="402" cy="304" rx="132" ry="92" fill="#776252"/>
  <path d="M361 230c38-18 78-22 121-12-18 30-39 58-60 83-27-18-48-43-61-71Z" fill="#A78B67"/>
  <path d="M331 340c40-22 93-27 154-16-20 33-46 60-80 81-30-17-54-39-74-65Z" fill="#8E755A"/>
  <ellipse cx="579" cy="303" rx="58" ry="43" fill="#6C5D52"/>
  <circle cx="603" cy="291" r="8" fill="#211C19"/>
  <path d="M628 304l44 18-48 10 4-28Z" fill="#6C5D52"/>
  <path d="M244 286c-36-5-66-21-92-47 42-21 77-17 106 12l-14 35Z" fill="#6C5D52"/>
  <path d="M235 372c-39 16-76 18-112 4 27-35 59-50 97-46l15 42Z" fill="#6C5D52"/>
  <path d="M446 408c35 23 58 54 68 94-39-5-69-26-92-61l24-33Z" fill="#6C5D52"/>
  <path d="M332 416c-31 27-49 58-55 95 38-10 65-34 82-73l-27-22Z" fill="#6C5D52"/>
</svg>
