<svg width="1400" height="840" viewBox="0 0 1400 840" fill="none" xmlns="http://www.w3.org/2000/svg">
  <rect width="1400" height="840" rx="36" fill="#ECE3D7"/>
  <rect x="22" y="22" width="1356" height="796" rx="30" fill="#F7F2EA" stroke="#D8CCBC"/>

  <circle cx="122" cy="86" r="10" fill="#C29A72"/>
  <circle cx="158" cy="86" r="10" fill="#8A9A7E"/>
  <circle cx="194" cy="86" r="10" fill="#6E5046"/>

  <text x="72" y="158" fill="#241F1B" font-family="Baskerville, Georgia, serif" font-size="58" font-weight="600">EcoScan</text>
  <text x="74" y="200" fill="#6B6259" font-family="'Trebuchet MS', sans-serif" font-size="22">Biodiversity dashboard for habitats under pressure</text>

  <rect x="72" y="240" width="290" height="132" rx="24" fill="#FFF9F2" stroke="#DED3C6"/>
  <text x="96" y="284" fill="#72685E" font-family="'Trebuchet MS', sans-serif" font-size="16" letter-spacing="2">TOP SIGNAL</text>
  <text x="96" y="334" fill="#241F1B" font-family="Baskerville, Georgia, serif" font-size="34" font-weight="600">Monarch butterfly</text>
  <text x="96" y="364" fill="#6B6259" font-family="'Trebuchet MS', sans-serif" font-size="18">South San Jose corridor</text>

  <rect x="382" y="240" width="286" height="132" rx="24" fill="#FFF9F2" stroke="#DED3C6"/>
  <text x="406" y="284" fill="#72685E" font-family="'Trebuchet MS', sans-serif" font-size="16" letter-spacing="2">STRESSED CELLS</text>
  <text x="406" y="350" fill="#8A6A53" font-family="Baskerville, Georgia, serif" font-size="52" font-weight="600">7</text>

  <rect x="688" y="240" width="286" height="132" rx="24" fill="#FFF9F2" stroke="#DED3C6"/>
  <text x="712" y="284" fill="#72685E" font-family="'Trebuchet MS', sans-serif" font-size="16" letter-spacing="2">THRIVING CELLS</text>
  <text x="712" y="350" fill="#76866F" font-family="Baskerville, Georgia, serif" font-size="52" font-weight="600">5</text>

  <rect x="994" y="240" width="332" height="132" rx="24" fill="#FFF9F2" stroke="#DED3C6"/>
  <text x="1018" y="284" fill="#72685E" font-family="'Trebuchet MS', sans-serif" font-size="16" letter-spacing="2">LEAD ACTION</text>
  <text x="1018" y="326" fill="#241F1B" font-family="Baskerville, Georgia, serif" font-size="28" font-weight="600">Restore habitat buffers</text>
  <text x="1018" y="356" fill="#6B6259" font-family="'Trebuchet MS', sans-serif" font-size="18">Improve water retention and shade cover</text>

  <rect x="72" y="406" width="798" height="356" rx="28" fill="#FFF9F2" stroke="#DED3C6"/>
  <text x="106" y="452" fill="#72685E" font-family="'Trebuchet MS', sans-serif" font-size="16" letter-spacing="2">CORRIDOR MAP</text>
  <rect x="106" y="480" width="730" height="248" rx="24" fill="#EFE4D5"/>
  <path d="M150 548C244 530 331 558 423 604C511 647 598 664 760 703" stroke="#74858D" stroke-width="18" stroke-linecap="round"/>
  <rect x="146" y="524" width="152" height="88" rx="18" fill="#80957A" fill-opacity="0.28"/>
  <rect x="646" y="516" width="148" height="180" rx="18" fill="#AF8066" fill-opacity="0.18"/>
  <rect x="188" y="564" width="122" height="98" rx="13" fill="#758A6E" stroke="#FFF8F0" stroke-width="3"/>
  <rect x="326" y="586" width="128" height="94" rx="13" fill="#B88B63" stroke="#FFF8F0" stroke-width="3"/>
  <rect x="468" y="614" width="126" height="86" rx="13" fill="#6F5046" stroke="#FFF8F0" stroke-width="3"/>
  <rect x="610" y="572" width="124" height="110" rx="13" fill="#A77B5E" stroke="#FFF8F0" stroke-width="3"/>
  <circle cx="338" cy="552" r="10" fill="#223748" stroke="#FFF8F0" stroke-width="4"/>
  <circle cx="612" cy="620" r="10" fill="#223748" stroke="#FFF8F0" stroke-width="4"/>
  <circle cx="258" cy="648" r="10" fill="#223748" stroke="#FFF8F0" stroke-width="4"/>

  <g opacity="0.88">
    <rect x="118" y="694" width="128" height="22" rx="11" fill="#FAF4EB"/>
    <text x="134" y="709" fill="#6B6259" font-family="'Trebuchet MS', sans-serif" font-size="15">Wetland edge</text>
    <rect x="270" y="694" width="144" height="22" rx="11" fill="#FAF4EB"/>
    <text x="286" y="709" fill="#6B6259" font-family="'Trebuchet MS', sans-serif" font-size="15">Mixed grassland</text>
    <rect x="440" y="694" width="150" height="22" rx="11" fill="#FAF4EB"/>
    <text x="456" y="709" fill="#6B6259" font-family="'Trebuchet MS', sans-serif" font-size="15">Urban heat fringe</text>
  </g>

  <rect x="896" y="406" width="430" height="356" rx="28" fill="#FFF9F2" stroke="#DED3C6"/>
  <text x="928" y="452" fill="#72685E" font-family="'Trebuchet MS', sans-serif" font-size="16" letter-spacing="2">FOCUSED VIEW</text>
  <text x="928" y="502" fill="#241F1B" font-family="Baskerville, Georgia, serif" font-size="34" font-weight="600">Urban heat fringe</text>

  <text x="928" y="542" fill="#6B6259" font-family="'Trebuchet MS', sans-serif" font-size="20">
    <tspan x="928" dy="0">Valley oak saplings are the clearest</tspan>
    <tspan x="928" dy="28">warning signal in this habitat.</tspan>
  </text>

  <rect x="928" y="578" width="366" height="1" fill="#DED3C6"/>

  <text x="928" y="616" fill="#6B6259" font-family="'Trebuchet MS', sans-serif" font-size="19">Most at-risk species</text>
  <text x="1122" y="616" fill="#241F1B" font-family="'Trebuchet MS', sans-serif" font-size="19" font-weight="700">Valley oak saplings</text>

  <rect x="928" y="642" width="366" height="1" fill="#DED3C6"/>

  <text x="928" y="680" fill="#6B6259" font-family="'Trebuchet MS', sans-serif" font-size="19">Key drivers</text>
  <text x="1098" y="680" fill="#241F1B" font-family="'Trebuchet MS', sans-serif" font-size="19" font-weight="700">Moisture, vegetation, dry air</text>

  <rect x="928" y="712" width="176" height="16" rx="8" fill="#DCE3CF"/>
  <rect x="928" y="712" width="142" height="16" rx="8" fill="#8B9E76"/>
  <text x="1122" y="726" fill="#6B6259" font-family="'Trebuchet MS', sans-serif" font-size="17">Vulnerability 84%</text>
</svg>
